<?xml version="1.0" standalone="no"?>
<!DOCTYPE svg PUBLIC "-//W3C//DTD SVG 20010904//EN"
 "http://www.w3.org/TR/2001/REC-SVG-20010904/DTD/svg10.dtd">
<svg version="1.0" xmlns="http://www.w3.org/2000/svg"
 width="300.000000pt" height="300.000000pt" viewBox="0 0 300.000000 300.000000"
 preserveAspectRatio="xMidYMid meet">
<metadata>
Created by potrace 1.10, written by Peter Selinger 2001-2011
</metadata>
<g transform="translate(0.000000,300.000000) scale(0.100000,-0.100000)"
fill="#000000" stroke="none">
<path d="M1397 2612 c-21 -4 -38 -10 -37 -14 0 -11 3 -11 78 -4 148 14 384
-29 485 -89 58 -35 77 -42 77 -27 -1 11 -105 70 -158 88 -112 38 -350 63 -445
46z"/>
<path d="M1255 2565 c-152 -57 -291 -136 -393 -223 -216 -186 -336 -494 -302
-774 19 -157 74 -339 143 -474 84 -162 353 -352 612 -431 81 -24 105 -27 235
-27 117 1 160 5 225 22 198 55 367 168 487 327 62 81 97 146 98 178 0 33 -18
17 -29 -25 -15 -60 -126 -204 -214 -278 -87 -73 -241 -152 -352 -181 -106 -27
-253 -35 -341 -19 -258 48 -563 229 -677 402 -44 68 -109 229 -136 338 -94
381 14 724 302 955 83 67 268 165 375 200 28 9 52 18 52 20 0 13 -35 9 -85
-10z"/>
<path d="M2143 2377 c149 -151 242 -302 289 -472 19 -70 22 -106 22 -287 1
-138 4 -204 11 -197 6 5 12 69 14 140 8 300 -43 481 -190 680 -71 95 -201 229
-223 229 -8 0 26 -42 77 -93z"/>
<path d="M1450 2363 c-120 -18 -269 -80 -255 -104 6 -9 -82 -55 -98 -51 -12 4
-43 -15 -102 -63 -30 -25 -57 -40 -60 -35 -8 13 -25 13 -25 -1 0 -5 4 -8 9 -4
5 3 12 2 14 -3 8 -11 -49 -83 -58 -74 -5 4 -5 2 -1 -5 4 -7 -5 -35 -18 -62
-64 -126 -82 -286 -51 -461 17 -97 52 -210 66 -210 13 0 11 15 -6 57 -23 54
-17 54 11 1 13 -27 27 -48 29 -48 6 0 -44 102 -54 110 -3 3 -7 12 -7 20 -1 8
-5 23 -9 33 -6 14 -4 16 11 10 13 -5 16 -3 11 10 -3 8 -11 60 -17 115 -15 136
2 221 73 362 28 58 52 110 52 115 0 22 105 101 190 142 49 24 81 41 70 38 -17
-4 -16 -2 5 15 57 45 257 89 346 75 29 -4 42 -10 35 -14 -8 -5 2 -10 26 -13
35 -5 85 -24 173 -66 46 -22 177 -153 225 -225 46 -69 42 -85 -5 -22 -18 25
-35 43 -37 41 -3 -2 12 -26 33 -53 50 -66 76 -128 78 -190 1 -59 11 -61 20 -4
7 46 -22 136 -69 217 -47 80 -184 214 -270 263 -137 79 -227 101 -335 84z
m-560 -408 c-27 -55 -56 -131 -64 -170 -8 -38 -15 -59 -15 -45 -2 59 42 188
95 278 43 73 35 43 -16 -63z m-55 -456 c6 -11 5 -12 -5 -2 -9 9 -15 43 -16
105 l-2 93 7 -91 c4 -49 11 -97 16 -105z"/>
<path d="M1415 2319 c-55 -13 -167 -50 -163 -55 2 -2 39 8 83 22 43 14 110 29
149 33 63 7 65 8 21 9 -27 0 -68 -4 -90 -9z"/>
<path d="M2540 2248 c-46 -75 -55 -131 -55 -348 0 -206 1 -214 51 -462 5 -24
2 -27 -37 -33 -44 -8 -89 -43 -89 -69 0 -8 10 -23 23 -32 l22 -17 -27 -28
c-33 -33 -38 -78 -9 -86 19 -5 19 -5 0 -36 -23 -39 -24 -60 -4 -77 13 -10 23
-10 55 3 27 10 40 12 40 4 0 -7 3 -7 9 -2 5 6 11 60 13 121 3 87 9 118 24 145
11 19 27 34 35 34 8 0 25 -22 39 -50 20 -41 25 -67 28 -168 3 -75 9 -120 16
-123 18 -6 100 22 104 36 3 9 -1 11 -13 7 -9 -4 -28 -10 -42 -14 -26 -6 -26
-5 -19 38 8 49 30 79 58 79 10 0 18 5 18 10 0 6 -11 10 -25 10 -27 0 -42 33
-30 68 3 11 1 23 -4 27 -13 8 -21 -27 -20 -85 0 -25 -3 -65 -8 -90 -8 -41 -10
-36 -14 60 -8 147 -50 234 -103 214 -11 -4 -16 0 -16 12 0 11 -3 30 -6 44 -6
24 -6 25 9 5 9 -11 16 -18 17 -15 0 13 -30 100 -41 118 -16 26 -10 33 19 25
15 -3 22 -13 22 -29 0 -13 6 -24 13 -24 9 0 12 78 12 358 -1 196 -2 367 -3
380 -3 34 -38 28 -62 -10z m43 -337 l-6 -322 -26 3 c-23 3 -27 9 -38 73 -6 39
-11 115 -10 170 l1 100 3 -95 c2 -52 9 -99 15 -105 7 -7 8 35 3 145 -4 85 -10
156 -14 158 -14 5 9 115 35 172 20 43 27 52 34 39 5 -8 6 -157 3 -338z m-41
-533 c3 -7 -1 -28 -9 -45 -15 -37 -44 -43 -81 -17 -29 20 -15 50 31 63 45 13
54 13 59 -1z m-29 -135 c-3 -21 -7 -40 -9 -41 -1 -2 -21 -6 -43 -9 -35 -5 -41
-3 -41 13 0 26 50 74 76 74 21 0 22 -4 17 -37z m-8 -104 c-1 -37 -4 -43 -35
-55 -19 -9 -37 -11 -42 -6 -12 12 22 90 42 96 33 8 36 5 35 -35z"/>
<path d="M1970 2225 c0 -3 16 -26 36 -52 150 -197 192 -496 104 -745 -16 -48
-30 -92 -30 -98 0 -24 20 3 32 42 8 29 14 36 18 23 3 -9 17 49 29 129 37 227
19 367 -70 550 -41 84 -92 156 -110 156 -5 0 -9 -2 -9 -5z"/>
<path d="M365 2135 c-14 -105 -1 -212 35 -300 l32 -80 -5 -210 c-3 -130 -1
-218 5 -228 6 -12 6 -22 -1 -31 -11 -13 -29 -119 -33 -196 -3 -50 -14 -54 -74
-29 -18 7 -39 9 -50 5 -15 -7 -10 -11 26 -21 90 -26 91 -27 85 -44 -13 -34
-18 -151 -6 -151 6 0 11 16 11 38 0 20 5 55 10 77 5 22 16 97 24 167 15 133
24 161 56 178 15 8 23 6 38 -11 27 -29 29 -46 27 -289 l-2 -215 -32 -78 c-32
-82 -36 -97 -23 -97 15 0 82 194 82 237 0 15 11 36 25 49 30 28 32 68 6 108
l-20 29 32 16 c45 22 46 51 4 98 -32 36 -34 39 -20 61 24 35 19 70 -17 107
-18 18 -30 37 -27 42 8 12 -29 72 -48 79 -12 5 -15 33 -15 164 0 155 1 160 32
237 26 64 32 96 36 180 5 103 -1 153 -18 153 -5 0 -12 -31 -16 -70 -6 -69 -24
-88 -24 -27 0 50 -12 107 -21 107 -5 0 -9 -28 -10 -62 0 -35 -4 -72 -9 -83 -7
-14 -9 5 -8 59 1 91 -17 117 -27 39 -14 -114 -19 -122 -25 -39 -6 97 -25 113
-35 31z m81 -144 c8 -23 23 1 33 50 9 43 9 43 10 9 3 -71 24 -74 42 -6 6 21 7
9 5 -39 -3 -46 -15 -99 -36 -155 l-32 -85 6 -185 c3 -102 9 -198 12 -215 4
-25 1 -32 -20 -42 -24 -10 -26 -9 -26 12 0 13 4 25 9 27 14 5 26 118 13 118
-6 0 -12 -21 -14 -47 -2 -27 -3 44 -3 157 0 179 -2 209 -18 238 -22 40 -12 57
38 66 19 4 37 11 40 16 9 15 -31 12 -70 -4 -20 -9 -37 -11 -40 -5 -4 5 -8 42
-10 81 -3 42 -1 60 3 43 10 -43 25 -37 37 15 l10 45 3 -40 c1 -22 5 -46 8 -54z
m84 -622 c0 -10 -4 -20 -9 -23 -9 -6 -21 27 -21 59 1 20 1 20 15 1 8 -11 15
-28 15 -37z m65 -89 c8 -26 -14 -68 -26 -49 -5 8 -9 21 -9 30 0 9 -9 28 -20
41 -10 14 -17 28 -13 31 9 10 61 -31 68 -53z m32 -183 c-5 -17 -50 -38 -60
-28 -5 5 -5 30 -1 57 l7 48 29 -33 c16 -18 27 -38 25 -44z m-27 -143 c0 -23
-22 -48 -33 -37 -4 3 -7 34 -7 67 l1 61 19 -35 c11 -19 19 -45 20 -56z"/>
<path d="M1145 2071 c-3 -5 -19 -12 -35 -16 -31 -7 -38 -19 -18 -31 7 -5 9 -2
4 7 -4 8 2 3 13 -11 12 -14 19 -18 15 -9 -3 10 5 27 21 43 14 14 21 26 16 26
-5 0 -12 -4 -16 -9z"/>
<path d="M955 1973 c-16 -32 -28 -66 -27 -76 0 -10 -4 -15 -10 -11 -6 4 -8 -1
-3 -16 5 -17 4 -21 -6 -15 -9 6 -11 3 -6 -8 4 -10 4 -32 0 -49 -5 -28 -7 -29
-14 -13 -5 12 -6 -1 -4 -30 4 -36 2 -43 -4 -25 -5 15 -6 -14 -3 -75 6 -129 14
-177 30 -183 11 -3 12 6 5 44 -13 80 -6 223 15 302 11 41 37 101 57 133 20 33
34 63 31 66 -3 4 -6 3 -6 -2 0 -4 -6 -2 -14 4 -11 9 -19 0 -41 -46z"/>
<path d="M2126 1769 c-3 -17 -5 -82 -4 -143 l1 -111 7 140 c4 77 6 141 5 143
-1 1 -5 -12 -9 -29z"/>
<path d="M1200 1750 c6 -12 7 -19 1 -18 -8 3 -11 -2 -11 -18 0 -4 7 -1 15 6
19 16 19 36 0 44 -13 4 -14 2 -5 -14z"/>
<path d="M2586 1463 c3 -27 10 -52 15 -57 11 -12 11 13 3 67 -10 55 -26 46
-18 -10z"/>
<path d="M298 1411 c-80 -61 -89 -75 -140 -214 -59 -162 -57 -199 12 -347 67
-144 71 -195 23 -308 -17 -39 -27 -74 -22 -77 17 -11 79 151 79 208 0 41 -26
117 -75 220 -49 101 -49 140 -2 282 47 139 63 164 137 219 33 25 61 48 61 51
1 18 -13 11 -73 -34z"/>
<path d="M2630 1410 c0 -5 13 -10 29 -10 16 0 59 -15 95 -33 37 -19 69 -30 72
-26 5 8 -63 51 -109 68 -36 14 -87 14 -87 1z"/>
<path d="M369 1304 c-18 -19 -35 -30 -37 -24 -2 5 -8 10 -12 10 -5 0 -8 -34
-7 -75 1 -41 5 -75 9 -75 12 0 21 49 15 86 -4 23 -2 34 7 34 17 0 80 67 68 73
-5 4 -24 -10 -43 -29z"/>
<path d="M2843 1293 c3 -10 18 -49 32 -88 26 -69 27 -82 10 -175 -6 -32 -5
-33 8 -17 13 16 15 15 20 -11 7 -35 -3 -80 -36 -157 -40 -95 -74 -284 -51
-292 6 -2 15 36 22 94 9 66 24 125 49 187 37 92 48 169 29 211 -5 11 -8 38 -7
61 3 45 -53 204 -71 204 -6 0 -8 -8 -5 -17z"/>
<path d="M931 1282 c-2 -40 149 -198 226 -238 21 -10 40 -21 43 -24 3 -3 10
-5 15 -5 6 -1 35 -9 65 -18 64 -21 250 -35 250 -20 0 5 -42 13 -92 16 -104 8
-173 24 -235 55 -42 22 -124 107 -175 183 -15 23 -28 37 -28 31 0 -6 23 -40
50 -76 28 -36 47 -66 42 -66 -10 0 -105 100 -139 145 -12 17 -22 24 -22 17z"/>
<path d="M930 1202 c0 -4 23 -34 51 -65 111 -125 283 -216 412 -219 33 0 37
-3 31 -21 -5 -17 -4 -18 9 -6 8 8 13 17 10 22 -7 12 32 8 46 -5 8 -7 11 -8 8
-2 -5 8 14 14 55 18 74 9 207 49 264 81 56 30 205 156 198 166 -3 5 -44 -23
-91 -61 -48 -38 -88 -68 -91 -66 -2 2 -11 -3 -21 -13 -9 -9 -62 -32 -117 -51
-86 -28 -116 -33 -228 -38 -76 -3 -127 -1 -123 4 3 5 -12 10 -32 10 -67 2
-195 78 -290 171 -86 85 -91 89 -91 75z"/>
<path d="M246 1161 c-4 -5 4 -15 16 -22 13 -6 40 -27 60 -47 47 -45 63 -34 17
11 -46 46 -86 71 -93 58z"/>
<path d="M2434 1015 c-4 -16 1 -36 13 -58 11 -18 23 -58 26 -89 4 -31 21 -109
37 -173 17 -64 30 -128 30 -143 0 -32 15 -59 24 -44 7 12 -8 101 -39 217 -34
127 -39 174 -25 239 13 63 13 66 3 67 -5 0 -13 -19 -19 -43 -11 -43 -11 -43
-22 -17 -6 15 -8 36 -5 48 3 12 1 21 -6 21 -6 0 -13 -11 -17 -25z"/>
<path d="M2680 1003 c0 -18 35 -103 42 -103 12 0 10 20 -8 67 -15 37 -34 58
-34 36z"/>
<path d="M536 633 c-4 -38 -9 -85 -13 -105 -6 -41 11 -54 20 -15 12 50 19 187
10 187 -6 0 -13 -30 -17 -67z"/>
</g>
</svg>
